<svg xmlns="http://www.w3.org/2000/svg" viewBox="0 0 200 200">
  <!-- Map Pin Shape -->
  <path d="M100 20 C70 20 45 45 45 75 C45 115 100 180 100 180 S155 115 155 75 C155 20 130 20 100 20 Z" fill="#ffffff" stroke="#0A0A0A" stroke-width="4"/>

  <!-- Burger Circle Background -->
  <circle cx="100" cy="75" r="35" fill="#FF006E"/>

  <!-- Burger Icon -->
  <g transform="translate(100, 75)">
    <!-- Top Bun -->
    <path d="M -20 -10 Q -20 -18 -12 -18 L 12 -18 Q 20 -18 20 -10 Z" fill="#FFBE0B"/>
    <!-- Sesame Seeds -->
    <circle cx="-8" cy="-14" r="2" fill="#0A0A0A"/>
    <circle cx="0" cy="-15" r="2" fill="#0A0A0A"/>
    <circle cx="8" cy="-13" r="2" fill="#0A0A0A"/>
    <!-- Patty -->
    <rect x="-18" y="-5" width="36" height="8" rx="2" fill="#8B4513"/>
    <!-- Bottom Bun -->
    <path d="M -18 5 L 18 5 Q 18 12 10 12 L -10 12 Q -18 12 -18 5 Z" fill="#FFBE0B"/>
  </g>
</svg>